<?xml version="1.0" encoding="UTF-8"?>
<svg id="Layer_1" data-name="Layer 1" xmlns="http://www.w3.org/2000/svg" width="1in" height="1in" viewBox="0 0 72 72">
  <defs>
    <style>
      .cls-1 {
        fill: #ec008c;
      }

      .cls-2 {
        fill: #ff0;
      }
    </style>
  </defs>
  <rect class="cls-1" width="72" height="72"/>
  <circle class="cls-2" cx="36" cy="36" r="36"/>
  <g>
    <path class="cls-1" d="M36.38,29.55c-5.31.7-7.93,4.89-7.95,9.71l-.09,23.62h-10.83s.03-40.41.03-40.41l9.76-.03c.1,1.36.14,2.56.1,3.88l-.03.95c0,.17.4.47.51.34l.67-.76c4.59-5.19,12.14-6.7,18.01-4.51,6.84,2.55,7.91,8.49,7.91,15.59v24.94s-11.05-.01-11.05-.01l-.18-27.62c-.02-3.49-3.84-6.1-6.87-5.7Z"/>
    <path class="cls-1" d="M47.57,13.97c-1.95,3.08-5.79,3.32-8.82,2.24l-6.72-2.41c-.68-.24-2.24-.1-2.83.14-.66.27-1.21,1.52-1.6,2.66-1.01.48-3.14.53-4.56.34-.75-2.89-.03-5.87,1.95-7.9,2.58-2.64,6.36-2.33,9.46-.74,2.48,1.27,5.17,2.27,8.03,1.81.75-.12,1.31-1.81,1.56-2.92,1.55-.12,3.26,0,5.16.27-.22,2.24-.51,4.72-1.65,6.51Z"/>
  </g>
</svg>